<?xml version="1.0" encoding="utf-8"?>
<!-- Generator: Adobe Illustrator 27.0.1, SVG Export Plug-In . SVG Version: 6.00 Build 0)  -->
<svg id="cls-icon" viewBox="0 0 167.2 261" version="1.1" id="Capa_1" xmlns="http://www.w3.org/2000/svg" xmlns:xlink="http://www.w3.org/1999/xlink">
<style type="text/css">
	.cls-st0{fill:#F2922D;}
	#cls-bubble-1 {
		animation: float-bubble-1 1s ease-in-out .2s forwards;
	}
	#cls-bubble-2 {
		animation: float-bubble-2 1s ease-in-out .1s forwards;
	}
	#cls-bubble-3 {
		animation: float-bubble-3 1.1s linear .2s forwards;
	}
	#cls-p-body {
		animation: move-body .5s ease-in-out;
	}
	.icon-open #cls-p-nose,
	.icon-open #cls-p-left-eye,
	.icon-open #cls-p-right-eye,
	.icon-open #cls-p-body {
		animation: bounce 5s ease-in-out;
		transform-origin: bottom;
	}

	@keyframes float-bubble-1 {
		10% { transform: translate3d(10px, 0px, 0); }
		100% { transform: translate3d(0, -85px, 0); }
	}
	@keyframes float-bubble-2 {
		10% { transform: translate3d(-10px, 0px, 0); }
		100% { transform: translate3d(0, -85px, 0); }
	}
	@keyframes float-bubble-3 {
		10% { transform: translate3d(0, 0px, 0); }
		30% { transform: translate3d(-3px, -35px, 0); }
		70% { transform: translate3d(6px, -60px, 0); }
		100% { transform: translate3d(0, -85px, 0); }
	}
	@keyframes bounce {
		10% { transform: rotate(-10deg); }
		30% { transform: rotate(10deg); }
		45% { transform: rotate(-5deg); }
		60% { transform: rotate(5deg); }
		70% { transform: rotate(-2deg); }
		80% { transform: rotate(2deg); }
		85% { transform: rotate(-1deg); }
		95% { transform: rotate(1deg); }
		100% { transform: rotate(0deg); }
	}
	@keyframes move-body {
		10% { transform: skew(-2deg); }
		25% { transform: skew(2deg); }
		40% { transform: skew(-1deg); }
		55% { transform: skew(1deg); }
		70% { transform: skew(-0.5deg); }
		85% { transform: skew(0.5deg); }
		100% { transform: skew(0); }
	}
</style>
<g id="cls-logo-main">
	<g>
		<polygon id="cls-p-nose" class="cls-st0" points="83.9,180.3 71.3,185.6 83.9,202.5 96.4,185.6"/>
		<g>
			<path id="cls-p-left-eye" d="M53.8,159.7c-4.4,0-7.9,3.5-7.9,7.9c0,4.4,3.5,7.9,7.9,7.9c4.4,0,7.9-3.5,7.9-7.9C61.7,163.2,58.2,159.7,53.8,159.7z"/>
			<path id="cls-p-right-eye" d="M114,159.7c-4.4,0-7.9,3.5-7.9,7.9c0,4.4,3.5,7.9,7.9,7.9s7.9-3.5,7.9-7.9C121.9,163.2,118.4,159.7,114,159.7z"/>
			<path id="cls-p-body" d="M109.6,98.5V71H124V59.2h-14.4H58.2H43.8V71h14.4v27.3C24.6,109,0.3,140.5,0.3,177.5c0,45.9,37.4,83.3,83.3,83.3
				s83.3-37.4,83.3-83.3C166.8,140.7,142.8,109.4,109.6,98.5z M141,164.1c-2.6,26.3-21,36.3-47.1,48.8c-3.2,1.5-2.5,6.1,0.9,6.7
				c8.3,1.5,23.1,0.2,35.8-1.2c0,0-9.2,24-46.7,25c-37.5-1-46.7-25-46.7-25c12.7,1.4,27.5,2.8,35.8,1.2c3.5-0.6,4.1-5.2,0.9-6.7
				c-26.1-12.5-44.5-22.5-47.1-48.8c-0.5-5.2,0-10.5,2-15.4c3.9-9.3,12.7-16.3,23.5-14.3c4.9,0.9,9.4,3.8,12.5,7.6
				c3.6,4.5,4,9.9,6.2,15c0.5,1.1,1.1,2.1,1.8,3.1c5.4,7.2,16.7,7.2,22.1,0c0.7-0.9,1.3-2,1.8-3.1c2.2-5.1,2.6-10.5,6.2-15
				c3.1-3.9,7.6-6.7,12.5-7.6c10.8-2,19.6,4.9,23.5,14.3C141,153.6,141.5,158.9,141,164.1z"/>
		</g>
		<circle id="cls-bubble-1" cx="66.6" cy="126.6" r="10.2"/>
		<circle id="cls-bubble-2" cx="102.1" cy="113.6" r="8.7"/>
		<circle id="cls-bubble-3" cx="78.7" cy="94.9" r="7.5"/>
	</g>
</g>
</svg>
